# xmcd CD database file
#
# Track frame offsets:
#	150
#	19433
#	36774
#	55678
#	75366
#	95496
#	110673
#	131308
#	156548
#	175896
#	201825
#	217825
#	239530
#	258331
#	280570
#
# Disc length: 3970 seconds
#
# Revision: 0
# Processed by: cddbd v1.5.2PL0 Copyright (c) Steve Scherf et al.
# Submitted via: CDex 1.50beta9
#
DISCID=c90f800f
DTITLE=Various Artist - Wave Music Vol. 11
DYEAR=2007
DGENRE=Jazz
TTITLE0=Triangle Sun - Treasure Of Our Lives
TTITLE1=Eliane Elias - Running
TTITLE2=Carmen Cuesta - Llevame
TTITLE3=Jeffery B. Suttles - Sweet Pleasure
TTITLE4=Mikelyn Roderick - Easy
TTITLE5=Eldissa - Funky Town
TTITLE6=Raul Midón - Sunshine
TTITLE7=Veiga and Salazar - Férias
TTITLE8=Trinah - Let´s Stay Together
TTITLE9=Life Emission Display - Inside
TTITLE10=Sphere - Is It Sun
TTITLE11=Becker - 6 Aus 49
TTITLE12=Classiquai Project - After Love
TTITLE13=Camiel - Eighty Eight
TTITLE14=Megan Brands - This Love
EXTD=YEAR: 2007
EXTT0=
EXTT1=
EXTT2=
EXTT3=
EXTT4=
EXTT5=
EXTT6=
EXTT7=
EXTT8=
EXTT9=
EXTT10=
EXTT11=
EXTT12=
EXTT13=
EXTT14=
PLAYORDER=
